<?xml version="1.0" encoding="UTF-8" standalone="no"?>
<!-- Created with Inkscape (http://www.inkscape.org/) -->

<svg
   width="132.55656mm"
   height="10.848325mm"
   viewBox="0 0 132.55656 10.848326"
   version="1.1"
   id="svg1"
   inkscape:version="1.4.2 (f4327f4, 2025-05-13)"
   sodipodi:docname="bemmvindo.svg"
   xmlns:inkscape="http://www.inkscape.org/namespaces/inkscape"
   xmlns:sodipodi="http://sodipodi.sourceforge.net/DTD/sodipodi-0.dtd"
   xmlns:xlink="http://www.w3.org/1999/xlink"
   xmlns="http://www.w3.org/2000/svg"
   xmlns:svg="http://www.w3.org/2000/svg">
  <sodipodi:namedview
     id="namedview1"
     pagecolor="#ffffff"
     bordercolor="#000000"
     borderopacity="0.25"
     inkscape:showpageshadow="2"
     inkscape:pageopacity="0.0"
     inkscape:pagecheckerboard="0"
     inkscape:deskcolor="#d1d1d1"
     inkscape:document-units="mm"
     inkscape:zoom="0.71891836"
     inkscape:cx="421.46649"
     inkscape:cy="191.25955"
     inkscape:window-width="2560"
     inkscape:window-height="1009"
     inkscape:window-x="-8"
     inkscape:window-y="-8"
     inkscape:window-maximized="1"
     inkscape:current-layer="layer1"
     inkscape:clip-to-page="false" />
  <defs
     id="defs1">
    <linearGradient
       id="linearGradient2"
       inkscape:collect="always">
      <stop
         style="stop-color:#fff200;stop-opacity:1;"
         offset="0"
         id="stop2" />
      <stop
         style="stop-color:#f3ffb7;stop-opacity:1;"
         offset="1"
         id="stop3" />
    </linearGradient>
    <rect
       x="235.07536"
       y="379.73715"
       width="700.70667"
       height="82.764252"
       id="rect2" />
    <rect
       x="137.70688"
       y="360.26343"
       width="205.86482"
       height="151.61665"
       id="rect1" />
    <linearGradient
       inkscape:collect="always"
       xlink:href="#linearGradient2"
       id="linearGradient3"
       x1="512.58496"
       y1="1.7583237"
       x2="512.58496"
       y2="129.02322"
       gradientUnits="userSpaceOnUse" />
  </defs>
  <g
     inkscape:label="Camada 1"
     inkscape:groupmode="layer"
     id="layer1"
     transform="translate(-448.95252,-54.674945)">
    <text
       xml:space="preserve"
       transform="scale(0.26458333)"
       id="text1"
       style="text-align:start;writing-mode:lr-tb;direction:ltr;white-space:pre;shape-inside:url(#rect1);display:inline;fill:#000000;stroke-width:1.00157;stroke-dasharray:none" />
    <path
       style="font-size:14.1111px;font-family:'Mega Man X';-inkscape-font-specification:'Mega Man X';fill:url(#linearGradient3);stroke:#000000;stroke-width:0.265"
       d="m 457.90446,63.626882 v -3.527775 h 1.76389 v 3.527775 z m -1.76389,-5.291662 v -1.763888 h -3.52777 v 1.763888 z m -7.05555,7.05555 V 54.807445 h 8.81944 v 1.763887 h 1.76389 v 1.763888 h -1.76389 v 1.763887 h -5.29166 v 3.527775 h 5.29166 v 1.763888 z m 17.63888,0 v -1.763888 h 5.29166 v 1.763888 z m -1.76389,-1.763888 V 58.33522 h 1.76389 v 1.763887 h 3.52777 V 58.33522 h 1.76389 v 3.527775 h -5.29166 v 1.763887 z m 1.76389,-5.291662 v -1.763888 h 3.52777 v 1.763888 z m 12.34721,7.05555 v -8.819438 h 8.81944 v 8.819438 h -1.76389 v -7.05555 h -1.76389 v 7.05555 h -1.76389 V 58.33522 H 480.835 v 7.05555 z m 12.34721,-3.527775 v -1.763888 h 10.58333 v 1.763888 z m 17.63888,3.527775 v -3.527775 h -1.76389 V 58.33522 h -1.76389 v -3.527775 h 3.52778 v 3.527775 h 1.76389 v 3.527775 h 1.76388 V 58.33522 h 1.76389 v -3.527775 h 3.52778 v 1.763887 h -1.76389 v 3.527775 h -1.76389 v 3.527775 h -1.76389 v 1.763888 z m 14.1111,0 v -7.05555 h 3.52778 v 7.05555 z m 0,-8.819438 v -1.763887 h 3.52778 v 1.763887 z m 12.34721,8.819438 v -8.819438 h 7.05555 v 8.819438 h -1.76388 v -7.05555 h -1.76389 v 7.05555 z m 17.63888,-1.763888 v -3.527775 h -1.76389 v 3.527775 z m -3.52778,1.763888 v -7.05555 h 3.52778 v -3.527775 h 3.52777 V 65.39077 Z m 19.40276,-1.763888 V 58.33522 h 1.76389 v 5.291662 z m -5.29166,1.763888 v -1.763888 h -1.76389 V 58.33522 h 1.76389 v -1.763888 h 5.29166 v 1.763888 h -3.52777 v 5.291662 h 3.52777 v 1.763888 z m 14.1111,0 v -1.763888 h 3.52778 v 1.763888 z m 0,-3.527775 v -7.05555 h 3.52778 v 7.05555 z"
       id="text2"
       aria-label="Bem-Vindo!" />
  </g>
</svg>
