<?xml version="1.0" encoding="UTF-8" standalone="no"?>
<!-- Created with Inkscape (http://www.inkscape.org/) -->

<svg
   width="176.65337mm"
   height="12.611798mm"
   viewBox="0 0 176.65337 12.611798"
   version="1.1"
   id="svg1"
   inkscape:version="1.4.2 (f4327f4, 2025-05-13)"
   sodipodi:docname="inomeado.svg"
   xmlns:inkscape="http://www.inkscape.org/namespaces/inkscape"
   xmlns:sodipodi="http://sodipodi.sourceforge.net/DTD/sodipodi-0.dtd"
   xmlns:xlink="http://www.w3.org/1999/xlink"
   xmlns="http://www.w3.org/2000/svg"
   xmlns:svg="http://www.w3.org/2000/svg">
  <sodipodi:namedview
     id="namedview1"
     pagecolor="#ffffff"
     bordercolor="#000000"
     borderopacity="0.25"
     inkscape:showpageshadow="2"
     inkscape:pageopacity="0.0"
     inkscape:pagecheckerboard="0"
     inkscape:deskcolor="#d1d1d1"
     inkscape:document-units="mm"
     inkscape:zoom="1.0167041"
     inkscape:cx="231.13903"
     inkscape:cy="173.60017"
     inkscape:window-width="2560"
     inkscape:window-height="1009"
     inkscape:window-x="-8"
     inkscape:window-y="-8"
     inkscape:window-maximized="1"
     inkscape:current-layer="layer1" />
  <defs
     id="defs1">
    <linearGradient
       id="linearGradient13"
       inkscape:collect="always">
      <stop
         style="stop-color:#00b2ff;stop-opacity:1;"
         offset="0"
         id="stop14" />
      <stop
         style="stop-color:#ffffff;stop-opacity:1;"
         offset="1"
         id="stop15" />
    </linearGradient>
    <rect
       x="235.07536"
       y="379.73715"
       width="700.70667"
       height="82.764252"
       id="rect2" />
    <rect
       x="137.70688"
       y="360.26343"
       width="205.86482"
       height="151.61665"
       id="rect1" />
    <linearGradient
       inkscape:collect="always"
       xlink:href="#linearGradient13"
       id="linearGradient15"
       x1="555.07617"
       y1="752.61731"
       x2="555.07617"
       y2="111.61733"
       gradientUnits="userSpaceOnUse" />
  </defs>
  <g
     inkscape:label="Camada 1"
     inkscape:groupmode="layer"
     id="layer1"
     transform="translate(-16.986293,-102.57446)">
    <text
       xml:space="preserve"
       transform="scale(0.26458333)"
       id="text1"
       style="text-align:start;writing-mode:lr-tb;direction:ltr;white-space:pre;shape-inside:url(#rect1);fill:#000000" />
    <path
       d="m 241.74283,432.11725 v -6.66666 h 6.66667 v -26.66665 h -6.66667 v -6.66667 h 26.66666 v 6.66667 h -6.66667 v 26.66665 h 6.66667 v 6.66666 z m 53.33331,0 v -13.33333 h 6.66666 v 6.66667 h 6.66666 v -6.66667 h -6.66666 v -6.66666 h -6.66666 v -6.66666 h 6.66666 v -6.66666 h 19.99999 v 13.33332 h -6.66667 v -6.66666 h -6.66666 v 6.66666 h 6.66666 v 6.66666 h 6.66667 v 13.33333 z m 73.33329,-6.66666 v -6.66667 H 355.0761 v 6.66667 z m -19.99999,6.66666 v -19.99999 h 19.99999 v -6.66666 h -19.99999 v -6.66666 h 26.66665 v 26.66665 h 6.66666 v 6.66666 z m 66.66663,-13.33333 V 405.4506 h -6.66666 v 13.33332 z m 0,19.99999 v -13.33332 h -13.33333 v -26.66665 h 26.66665 v 39.99997 z m 46.66663,-6.66666 v -6.66666 h -6.66666 v -26.66665 h 13.33333 v 26.66665 h 6.66666 v 6.66666 z m 13.33333,-6.66666 v -26.66665 h 6.66666 v 26.66665 z m 39.99997,6.66666 v -6.66666 h 19.99999 v 6.66666 z m -6.66666,-6.66666 V 405.4506 h 6.66666 v 6.66666 h 13.33333 v -6.66666 h 6.66666 v 13.33332 H 515.076 v 6.66667 z M 515.076,405.4506 v -6.66666 h 13.33333 v 6.66666 z m 99.99993,26.66665 v -39.99998 h 6.66667 v 6.66667 h 6.66666 v 6.66666 h 6.66666 v 6.66666 h 6.66666 v -19.99999 h 6.66667 v 39.99998 h -6.66667 v -6.66666 h -6.66666 v -6.66667 h -6.66666 v 13.33333 z m 59.99998,0 v -6.66666 h 19.99999 v 6.66666 z m -6.66666,-6.66666 V 405.4506 h 6.66666 v 6.66666 h 13.33333 v -6.66666 h 6.66666 v 13.33332 h -19.99999 v 6.66667 z m 6.66666,-19.99999 v -6.66666 h 13.33333 v 6.66666 z m 46.66665,19.99999 v -26.66665 h 6.66666 v 26.66665 z m 6.66666,6.66666 v -6.66666 h 6.66667 v -26.66665 h 6.66666 v 26.66665 h 6.66666 v -26.66665 h 6.66666 v 33.33331 z m 53.33329,0 v -19.99999 h -6.66667 v -6.66666 h 6.66667 v -13.33333 h 13.33332 v 13.33333 h 6.66666 v 6.66666 h -6.66666 v 19.99999 z m 66.66663,-6.66666 V 405.4506 h 6.66667 v 19.99999 z m -19.99998,6.66666 v -6.66666 h -6.66667 V 405.4506 h 6.66667 v -6.66666 h 19.99998 v 6.66666 h -13.33332 v 19.99999 h 13.33332 v 6.66666 z m 53.33331,0 v -33.33331 h 26.66665 v 33.33331 h -6.66666 V 405.4506 h -6.66667 v 26.66665 z"
       id="text2"
       style="font-size:53.3333px;font-family:'Mega Man X';-inkscape-font-specification:'Mega Man X';white-space:pre;fill:url(#linearGradient15);stroke:#000000"
       transform="matrix(0.26458333,0,0,0.26458333,-46.842538,-1.0409451)"
       aria-label="Isaque Newton" />
  </g>
</svg>
