<svg width="600" height="200" viewBox="0 0 600 200" xmlns="http://www.w3.org/2000/svg">
  <!-- Fundo azul escuro -->
  <rect width="100%" height="100%" fill="#001f3f"></rect>

  <!-- Path do texto com stroke animado -->
  <path d="m 241.74283,432.11725 v -6.66666 h 6.66667 v -26.66665 h -6.66667 v -6.66667 h 26.66666 v 6.66667 h -6.66667 v 26.66665 h 6.66667 v 6.66666 z m 53.33331,0 v -13.33333 h 6.66666 v 6.66667 h 6.66666 v -6.66667 h -6.66666 v -6.66666 h -6.66666 v -6.66666 h 6.66666 v -6.66666 h 19.99999 v 13.33332 h -6.66667 v -6.66666 h -6.66666 v 6.66666 h 6.66666 v 6.66666 h 6.66667 v 13.33333 z m 73.33329,-6.66666 v -6.66667 H 355.0761 v 6.66667 z m -19.99999,6.66666 v -19.99999 h 19.99999 v -6.66666 h -19.99999 v -6.66666 h 26.66665 v 26.66665 h 6.66666 v 6.66666 z m 66.66663,-13.33333 V 405.4506 h -6.66666 v 13.33332 z m 0,19.99999 v -13.33332 h -13.33333 v -26.66665 h 26.66665 v 39.99997 z m 46.66663,-6.66666 v -6.66666 h -6.66666 v -26.66665 h 13.33333 v 26.66665 h 6.66666 v 6.66666 z m 13.33333,-6.66666 v -26.66665 h 6.66666 v 26.66665 z m 39.99997,6.66666 v -6.66666 h 19.99999 v 6.66666 z m -6.66666,-6.66666 V 405.4506 h 6.66666 v 6.66666 h 13.33333 v -6.66666 h 6.66666 v 13.33332 H 515.076 v 6.66667 z M 515.076,405.4506 v -6.66666 h 13.33333 v 6.66666 z m 99.99993,26.66665 v -39.99998 h 6.66667 v 6.66667 h 6.66666 v 6.66666 h 6.66666 v 6.66666 h 6.66666 v -19.99999 h 6.66667 v 39.99998 h -6.66667 v -6.66666 h -6.66666 v -6.66667 h -6.66666 v 13.33333 z m 59.99998,0 v -6.66666 h 19.99999 v 6.66666 z m -6.66666,-6.66666 V 405.4506 h 6.66666 v 6.66666 h 13.33333 v -6.66666 h 6.66666 v 13.33332 h -19.99999 v 6.66667 z m 6.66666,-19.99999 v -6.66666 h 13.33333 v 6.66666 z m 46.66665,19.99999 v -26.66665 h 6.66666 v 26.66665 z m 6.66666,6.66666 v -6.66666 h 6.66667 v -26.66665 h 6.66666 v 26.66665 h 6.66666 v -26.66665 h 6.66666 v 33.33331 z m 53.33329,0 v -19.99999 h -6.66667 v -6.66666 h 6.66667 v -13.33333 h 13.33332 v 13.33333 h 6.66666 v 6.66666 h -6.66666 v 19.99999 z m 66.66663,-6.66666 V 405.4506 h 6.66667 v 19.99999 z m -19.99998,6.66666 v -6.66666 h -6.66667 V 405.4506 h 6.66667 v -6.66666 h 19.99998 v 6.66666 h -13.33332 v 19.99999 h 13.33332 v 6.66666 z m 53.33331,0 v -33.33331 h 26.66665 v 33.33331 h -6.66666 V 405.4506 h -6.66667 v 26.66665 z" transform="matrix(0.26458333,0,0,0.26458333,-46.842538,-1.0409451)" fill="#00ffff" stroke="#00ffff" stroke-width="2" stroke-dasharray="5 10">
    
    <!-- Stroke animado (energia correndo) -->
    <animate attributeName="stroke-dashoffset" values="0;100;0" dur="2s" repeatCount="indefinite"></animate>
    
    <!-- Efeito de glow pulsante -->
    <animate attributeName="fill" values="#00ffff;#36BCF7;#00ffff" dur="1.5s" repeatCount="indefinite"></animate>
  </path>
</svg>
