<?xml version="1.0" encoding="UTF-8" standalone="no"?>
<svg
   width="176.91795"
   height="12.876377"
   viewBox="0 0 176.91795 12.876377"
   version="1.1"
   id="svg1"
   sodipodi:docname="megamanxanimado.svg"
   inkscape:version="1.4.2 (f4327f4, 2025-05-13)"
   xmlns:inkscape="http://www.inkscape.org/namespaces/inkscape"
   xmlns:sodipodi="http://sodipodi.sourceforge.net/DTD/sodipodi-0.dtd"
   xmlns="http://www.w3.org/2000/svg"
   xmlns:svg="http://www.w3.org/2000/svg">
  <defs
     id="defs1" />
  <sodipodi:namedview
     id="namedview1"
     pagecolor="#ffffff"
     bordercolor="#000000"
     borderopacity="0.25"
     inkscape:showpageshadow="2"
     inkscape:pageopacity="0.0"
     inkscape:pagecheckerboard="0"
     inkscape:deskcolor="#d1d1d1"
     inkscape:zoom="11.389133"
     inkscape:cx="12.511927"
     inkscape:cy="21.819044"
     inkscape:window-width="2560"
     inkscape:window-height="1009"
     inkscape:window-x="-8"
     inkscape:window-y="-8"
     inkscape:window-maximized="1"
     inkscape:current-layer="svg1" />
  <!-- Fundo azul escuro -->
  <rect
     width="180.52304"
     height="14.249743"
     fill="#001f3f"
     id="rect1"
     x="-0.59154552"
     y="-0.7526471"
     ry="0" />
  <!-- Path do texto com stroke animado -->
  <path
     d="M 0.2645835,10.847913 V 9.0840235 h 1.76389 v -7.05555 h -1.76389 v -1.76389 h 7.055554 v 1.76389 h -1.76389 v 7.05555 h 1.76389 v 1.7638895 z m 14.1111045,0 V 7.3201335 h 1.763887 v 1.76389 h 1.763887 v -1.76389 h -1.763887 v -1.76389 h -1.763887 v -1.76389 h 1.763887 v -1.76388 h 5.291664 v 3.52777 h -1.76389 v -1.76389 h -1.763887 v 1.76389 h 1.763887 v 1.76389 h 1.76389 V 10.847913 Z M 33.778454,9.0840235 v -1.76389 h -3.527777 v 1.76389 z M 28.48679,10.847913 V 5.5562435 h 5.291664 v -1.76389 H 28.48679 v -1.76388 h 7.055551 v 7.05555 h 1.763887 V 10.847913 Z M 46.125669,7.3201335 v -3.52778 h -1.763887 v 3.52778 z m 0,5.2916595 V 9.0840235 h -3.527777 v -7.05555 h 7.055551 V 12.611793 Z m 12.347212,-1.76388 V 9.0840235 h -1.763887 v -7.05555 h 3.527777 v 7.05555 h 1.763887 v 1.7638895 z m 3.527777,-1.7638895 v -7.05555 h 1.763887 v 7.05555 z M 72.583983,10.847913 V 9.0840235 h 5.291664 V 10.847913 Z M 70.820096,9.0840235 v -5.29167 h 1.763887 v 1.76389 h 3.527777 v -1.76389 h 1.763887 v 3.52778 h -5.291664 v 1.76389 z m 1.763887,-5.29167 v -1.76388 h 3.527777 v 1.76388 z M 99.042298,10.847913 V 0.2645835 h 1.763892 v 1.76389 h 1.76389 v 1.76388 h 1.76388 v 1.76389 h 1.76389 v -5.29166 h 1.76389 V 10.847913 h -1.76389 V 9.0840235 h -1.76389 v -1.76389 h -1.76388 v 3.5277795 z m 15.874992,0 V 9.0840235 h 5.29167 v 1.7638895 z m -1.76388,-1.7638895 v -5.29167 h 1.76388 v 1.76389 h 3.52778 v -1.76389 h 1.76389 v 3.52778 h -5.29167 v 1.76389 z m 1.76388,-5.29167 v -1.76388 h 3.52778 v 1.76388 z m 12.34722,5.29167 v -7.05555 h 1.76389 v 7.05555 z m 1.76389,1.7638895 V 9.0840235 h 1.76389 v -7.05555 h 1.76389 v 7.05555 h 1.76388 v -7.05555 h 1.76389 v 8.8194395 z m 14.1111,0 V 5.5562435 h -1.76389 v -1.76389 h 1.76389 v -3.52777 h 3.52777 v 3.52777 h 1.76389 v 1.76389 h -1.76389 v 5.2916695 z m 17.63888,-1.7638895 v -5.29167 h 1.76389 v 5.29167 z m -5.29166,1.7638895 V 9.0840235 h -1.76389 v -5.29167 h 1.76389 v -1.76388 h 5.29166 v 1.76388 h -3.52778 v 5.29167 h 3.52778 v 1.7638895 z m 14.1111,0 V 2.0284735 h 7.05555 v 8.8194395 h -1.76389 V 3.7923535 h -1.76388 v 7.0555595 z"
     fill="#00ffff"
     stroke="#00ffff"
     stroke-width="0.529167"
     stroke-dasharray="5, 10"
     id="path1">
    <!-- Stroke animado (energia correndo) -->
    <animate
       attributeName="stroke-dashoffset"
       values="0;100;0"
       dur="2s"
       repeatCount="indefinite" />
    <!-- Efeito de glow pulsante -->
    <animate
       attributeName="fill"
       values="#00ffff;#36BCF7;#00ffff"
       dur="1.5s"
       repeatCount="indefinite" />
  </path>
</svg>
