<?xml version="1.0" encoding="UTF-8" standalone="no"?>
<!-- Created with Inkscape (http://www.inkscape.org/) -->

<svg
   width="236.62593mm"
   height="10.848325mm"
   viewBox="0 0 236.62593 10.848326"
   version="1.1"
   id="svg1"
   inkscape:version="1.4.2 (f4327f4, 2025-05-13)"
   sodipodi:docname="ondemeencontrar.svg"
   xmlns:inkscape="http://www.inkscape.org/namespaces/inkscape"
   xmlns:sodipodi="http://sodipodi.sourceforge.net/DTD/sodipodi-0.dtd"
   xmlns="http://www.w3.org/2000/svg"
   xmlns:svg="http://www.w3.org/2000/svg">
  <sodipodi:namedview
     id="namedview1"
     pagecolor="#ffffff"
     bordercolor="#000000"
     borderopacity="0.25"
     inkscape:showpageshadow="2"
     inkscape:pageopacity="0.0"
     inkscape:pagecheckerboard="0"
     inkscape:deskcolor="#d1d1d1"
     inkscape:document-units="mm"
     inkscape:zoom="0.71891836"
     inkscape:cx="503.53422"
     inkscape:cy="170.39487"
     inkscape:window-width="2560"
     inkscape:window-height="1009"
     inkscape:window-x="-8"
     inkscape:window-y="-8"
     inkscape:window-maximized="1"
     inkscape:current-layer="layer1"
     inkscape:clip-to-page="false" />
  <defs
     id="defs1">
    <rect
       x="235.07536"
       y="379.73715"
       width="700.70667"
       height="82.764252"
       id="rect2" />
    <rect
       x="137.70688"
       y="360.26343"
       width="205.86482"
       height="151.61665"
       id="rect1" />
  </defs>
  <g
     inkscape:label="Camada 1"
     inkscape:groupmode="layer"
     id="layer1"
     transform="translate(-427.37128,-60.238353)">
    <text
       xml:space="preserve"
       transform="scale(0.26458333)"
       id="text1"
       style="text-align:start;writing-mode:lr-tb;direction:ltr;white-space:pre;shape-inside:url(#rect1);display:inline;fill:#000000;stroke-width:1.00157;stroke-dasharray:none" />
    <path
       style="font-size:14.1111px;font-family:'Mega Man X';-inkscape-font-specification:'Mega Man X';fill:#00b2ff;stroke:#000000;stroke-width:0.265"
       d="m 434.55933,69.19029 v -7.05555 h -3.52777 v 7.05555 z m -5.29166,1.763888 V 69.19029 h -1.76389 v -7.05555 h 1.76389 v -1.763887 h 7.05555 v 1.763887 h 1.76389 v 7.05555 h -1.76389 v 1.763888 z m 14.1111,0 V 62.13474 h 7.05555 v 8.819438 h -1.76389 v -7.05555 h -1.76388 v 7.05555 z m 17.63888,-1.763888 v -3.527775 h -1.76389 v 3.527775 z m -3.52778,1.763888 v -7.05555 h 3.52778 v -3.527775 h 3.52777 v 10.583325 z m 15.87499,0 V 69.19029 h 5.29166 v 1.763888 z m -1.76389,-1.763888 v -5.291662 h 1.76389 v 1.763887 h 3.52778 v -1.763887 h 1.76388 v 3.527775 h -5.29166 v 1.763887 z m 1.76389,-5.291662 V 62.13474 h 3.52778 v 1.763888 z m 26.45832,7.05555 V 62.13474 h 8.81943 v 8.819438 h -1.76388 v -7.05555 h -1.76389 v 7.05555 h -1.76389 v -7.05555 h -1.76389 v 7.05555 z m 15.87498,0 V 69.19029 h 5.29166 v 1.763888 z m -1.76389,-1.763888 v -5.291662 h 1.76389 v 1.763887 h 3.52778 v -1.763887 h 1.76388 v 3.527775 h -5.29166 v 1.763887 z m 1.76389,-5.291662 V 62.13474 h 3.52778 v 1.763888 z m 28.2222,7.05555 V 69.19029 h 5.29166 v 1.763888 z m -1.76389,-1.763888 v -5.291662 h 1.76389 v 1.763887 h 3.52778 v -1.763887 h 1.76388 v 3.527775 h -5.29166 v 1.763887 z m 1.76389,-5.291662 V 62.13474 h 3.52778 v 1.763888 z m 12.34721,7.05555 V 62.13474 h 7.05555 v 8.819438 h -1.76388 v -7.05555 h -1.76389 v 7.05555 z m 15.875,0 V 69.19029 h -1.76389 v -5.291662 h 1.76389 V 62.13474 h 5.29166 v 3.527775 h -1.76389 v -1.763887 h -1.76389 v 5.291662 h 1.76389 v -1.763887 h 1.76389 v 3.527775 z m 17.63887,-1.763888 v -5.291662 h 1.76389 v 5.291662 z m -5.29166,1.763888 V 69.19029 h -1.76389 v -5.291662 h 1.76389 V 62.13474 h 5.29166 v 1.763888 h -3.52777 v 5.291662 h 3.52777 v 1.763888 z m 14.1111,0 V 62.13474 h 7.05555 v 8.819438 h -1.76389 v -7.05555 h -1.76389 v 7.05555 z m 15.87498,0 v -5.291663 h -1.76388 v -1.763887 h 1.76388 v -3.527775 h 3.52778 v 3.527775 h 1.76389 v 1.763887 h -1.76389 v 5.291663 z m 14.1111,0 V 62.13474 h 3.52778 v 1.763888 h 3.52777 v 1.763887 h -3.52777 v 5.291663 z m 17.63888,-1.763888 v -1.763887 h -3.52778 v 1.763887 z m -5.29166,1.763888 v -5.291663 h 5.29166 v -1.763887 h -5.29166 V 62.13474 h 7.05555 v 7.05555 h 1.76388 v 1.763888 z m 15.87498,0 V 62.13474 h 3.52778 v 1.763888 h 3.52777 v 1.763887 h -3.52777 v 5.291663 z"
       id="text2"
       aria-label="Onde me encontrar" />
  </g>
</svg>
