<?xml version="1.0" encoding="UTF-8" standalone="no"?>
<!-- Created with Inkscape (http://www.inkscape.org/) -->

<svg
   width="123.73713mm"
   height="10.848327mm"
   viewBox="0 0 123.73713 10.848327"
   version="1.1"
   id="svg1"
   inkscape:version="1.4.2 (f4327f4, 2025-05-13)"
   sodipodi:docname="sobremim.svg"
   xmlns:inkscape="http://www.inkscape.org/namespaces/inkscape"
   xmlns:sodipodi="http://sodipodi.sourceforge.net/DTD/sodipodi-0.dtd"
   xmlns="http://www.w3.org/2000/svg"
   xmlns:svg="http://www.w3.org/2000/svg">
  <sodipodi:namedview
     id="namedview1"
     pagecolor="#ffffff"
     bordercolor="#000000"
     borderopacity="0.25"
     inkscape:showpageshadow="2"
     inkscape:pageopacity="0.0"
     inkscape:pagecheckerboard="0"
     inkscape:deskcolor="#d1d1d1"
     inkscape:document-units="mm"
     inkscape:zoom="1.0167041"
     inkscape:cx="242.94187"
     inkscape:cy="78.193842"
     inkscape:window-width="2560"
     inkscape:window-height="1009"
     inkscape:window-x="-8"
     inkscape:window-y="-8"
     inkscape:window-maximized="1"
     inkscape:current-layer="layer1"
     inkscape:clip-to-page="false" />
  <defs
     id="defs1">
    <rect
       x="235.07536"
       y="379.73715"
       width="700.70667"
       height="82.764252"
       id="rect2" />
    <rect
       x="137.70688"
       y="360.26343"
       width="205.86482"
       height="151.61665"
       id="rect1" />
  </defs>
  <g
     inkscape:label="Camada 1"
     inkscape:groupmode="layer"
     id="layer1"
     transform="translate(-179.36919,-91.986583)">
    <text
       xml:space="preserve"
       transform="scale(0.26458333)"
       id="text1"
       style="text-align:start;writing-mode:lr-tb;direction:ltr;white-space:pre;shape-inside:url(#rect1);display:inline;fill:#000000;stroke-width:1.00157;stroke-dasharray:none" />
    <path
       style="font-size:14.1111px;font-family:'Mega Man X';-inkscape-font-specification:'Mega Man X';fill:#00b2ff;stroke:#000000;stroke-width:0.265"
       d="m 181.26558,102.70241 v -1.76389 h -1.76389 v -1.763887 h 3.52778 v 1.763887 h 3.52777 v -1.763887 h -3.52777 v -1.763888 h -3.52778 V 93.88297 h 1.76389 v -1.763887 h 7.05555 v 1.763887 h 1.76389 v 1.763888 h -3.52778 V 93.88297 h -3.52777 v 1.763888 h 3.52777 v 1.763887 h 1.76389 v 1.763888 h 1.76389 v 1.763887 h -1.76389 v 1.76389 z m 19.40276,-1.76389 v -5.291662 h 1.76389 v 5.291662 z m -5.29166,1.76389 v -1.76389 h -1.76389 v -5.291662 h 1.76389 V 93.88297 h 5.29166 v 1.763888 h -3.52777 v 5.291662 h 3.52777 v 1.76389 z m 14.1111,0 V 92.119083 h 3.52778 v 3.527775 h 3.52777 v 5.291662 h -1.76389 v -3.527775 h -1.76388 v 3.527775 h 1.76388 v 1.76389 z m 15.87499,0 v -8.81944 h 3.52778 v 1.763888 h 3.52777 v 1.763887 h -3.52777 v 5.291665 z m 14.1111,0 v -1.76389 h 5.29166 v 1.76389 z m -1.76389,-1.76389 v -5.291662 h 1.76389 v 1.763887 h 3.52777 v -1.763887 h 1.76389 v 3.527775 h -5.29166 v 1.763887 z m 1.76389,-5.291662 V 93.88297 h 3.52777 v 1.763888 z m 24.69443,7.055552 V 92.119083 h 1.76388 v 1.763887 h 1.76389 v 1.763888 h 1.76389 v 1.763887 h 1.76389 V 93.88297 h 1.76388 v -1.763887 h 1.76389 v 10.583327 h -1.76389 v -3.527777 h -1.76388 v 3.527777 h -3.52778 v -3.527777 h -1.76389 v 3.527777 z m 17.63887,0 v -7.055552 h 3.52778 v 7.055552 z m 0,-8.81944 v -1.763887 h 3.52778 v 1.763887 z m 12.34721,8.81944 v -8.81944 h 8.81944 v 8.81944 h -1.76389 v -7.055552 h -1.76388 v 7.055552 h -1.76389 v -7.055552 h -1.76389 v 7.055552 z"
       id="text2"
       aria-label="Sobre Mim" />
  </g>
</svg>
